<?xml version="1.0" encoding="UTF-8" standalone="no"?>
<svg
   xmlns:dc="http://purl.org/dc/elements/1.1/"
   xmlns:cc="http://creativecommons.org/ns#"
   xmlns:rdf="http://www.w3.org/1999/02/22-rdf-syntax-ns#"
   xmlns:svg="http://www.w3.org/2000/svg"
   xmlns="http://www.w3.org/2000/svg"
   viewBox="0 0 381.49198 381.492"
   version="1.1"
   id="svg78"
   width="381.492"
   height="381.492">
  <metadata
     id="metadata82">
    <rdf:RDF>
      <cc:Work
         rdf:about="">
        <dc:format>image/svg+xml</dc:format>
        <dc:type
           rdf:resource="http://purl.org/dc/dcmitype/StillImage" />
        <dc:title>retro-offset-rock-paper-scissors-icons</dc:title>
      </cc:Work>
    </rdf:RDF>
  </metadata>
  <defs
     id="defs12">
    <style
       id="style10">.cls-1{fill:#fffaff;}.cls-2{fill:#45e9ff;}.cls-3{fill:#ff30d6;}.cls-4{fill:#452cd6;}</style>
  </defs>
  <title
     id="title14">retro-offset-rock-paper-scissors-icons</title>
  <g
     id="g196"
     transform="translate(-346.32225,0.06011746)">
    <path
       class="cls-3"
       d="m 671.17,214.51187 a 46,46 0 0 0 -64.21,-0.89 l -2,1.85 v 12 l 8,-7.47 v 0 a 37.31,37.31 0 0 1 52,0.72 9.25,9.25 0 0 1 1.31,1.64 41.39,41.39 0 0 1 10.24,4.91 18.14,18.14 0 0 0 -5.34,-12.76 z"
       id="path37" />
    <path
       class="cls-3"
       d="m 564.94,44.26187 a 29.34,29.34 0 0 0 -15.75,4.56 29.24,29.24 0 0 1 4,7.87 20.5,20.5 0 0 1 29.72,7 23.93,23.93 0 0 1 10.81,4.1 c -3.13,-13.65 -14.64,-23.53 -28.78,-23.53 z"
       id="path39" />
    <path
       class="cls-3"
       d="m 512.89,18.38187 a 31.25,31.25 0 0 0 -26.43,14.59 28.78,28.78 0 0 0 -4.3,-5.74 29.25,29.25 0 0 0 -21.32,-8.85 29.59,29.59 0 0 0 -29.56,29.56 v 22.81 a 26.35,26.35 0 0 0 -17.7,-6.81 c -14.83,0 -26.45,12 -26.45,27.34 v 181.19 a 98.73,98.73 0 0 0 54,88.14 94.61,94.61 0 0 1 -24.68,-30.73 90,90 0 0 1 -20.6,-57.41 v -181.18 c 0,-9 6.21,-18.59 17.7,-18.59 a 17.71,17.71 0 0 1 16.16,10.55 21.88,21.88 0 0 1 10.28,3.23 v -38.54 a 20.83,20.83 0 0 1 20.81,-20.81 20.6,20.6 0 0 1 15,6.17 20.1,20.1 0 0 1 3.28,4.55 24.69,24.69 0 0 1 12.28,5.06 22.29,22.29 0 0 1 40.43,-5 25.44,25.44 0 0 1 11.17,4.59 33.8,33.8 0 0 0 -7.39,-14 30.11,30.11 0 0 0 -22.68,-10.12 z"
       id="path41" />
    <path
       class="cls-2"
       d="m 594.5,225.34187 10.5,-9.87 v -125.43 a 27.18,27.18 0 0 0 -11.29,-22.24 33.54,33.54 0 0 1 0.82,7.36 z"
       id="path43" />
    <path
       class="cls-2"
       d="m 590.13,315.39187 75.16,-81.54 a 9.44,9.44 0 0 0 1,-11.49 41.81,41.81 0 0 0 -41.48,9.32 l -19.83,18.65 v -22.86 l -11.88,11.17 a 4.47,4.47 0 0 1 -3,1.19 h -51 a 56.14,56.14 0 0 0 -42.53,19.47 l -6.62,-5.72 a 64.9,64.9 0 0 1 49.15,-22.5 h 46.61 v -155.92 a 23.14,23.14 0 0 0 -2.84,-11.41 25.15,25.15 0 0 0 -28.24,25 v -22.82 a 29.93,29.93 0 0 0 -1.48,-9.24 20.77,20.77 0 0 0 -9,17.13 v 103 h -8.75 v -125.77 a 24.89,24.89 0 0 0 -3.52,-13.11 27.23,27.23 0 0 0 -4.09,-0.31 26.86,26.86 0 0 0 -26.86,26.86 v -1.6 a 25.31,25.31 0 0 0 -9.48,-20 22.51,22.51 0 0 0 -1,6.7 v 127.21 h -8.75 v -128.79 a 21.5,21.5 0 0 0 -2.51,-10.16 27.45,27.45 0 0 0 -3.43,-0.22 25.18,25.18 0 0 0 -25.18,25.18 v 42.47 a 22.06,22.06 0 0 0 -10.5,-18.8 v 90.32 h -8.75 v -86.4 a 17.43,17.43 0 0 0 -1.62,-7.15 c -0.43,0 -0.86,-0.05 -1.29,-0.05 -13.24,0 -22.08,10.85 -22.08,23 v 181.14 a 94.27,94.27 0 0 0 10.1,42.54 88.33,88.33 0 0 0 68.27,32.37 c 44.86,0 75.39,-13.58 105.42,-46.86 z"
       id="path45" />
    <path
       class="cls-2"
       d="m 682.96,232.49187 v 0 a 42.57,42.57 0 0 0 -6.41,-5.22 18.14,18.14 0 0 1 -4.84,12.48 l -75.12,81.5 c -15.41,17.08 -30.4,28.75 -47.15,36.68 -18.54,8.77 -39.7,13 -64.71,13 a 96.13,96.13 0 0 1 -43.58,-10.39 92.06,92.06 0 0 0 58.45,20.89 c 50.46,0 80.9,-17.55 108.65,-48.31 l 75.12,-81.5 a 13.84,13.84 0 0 0 -0.41,-19.13 z"
       id="path47" />
    <path
       class="cls-2"
       d="m 544.12,52.84187 a 29.77,29.77 0 0 1 5.07,-4 27.09,27.09 0 0 0 -6.17,-6.29 34,34 0 0 1 1.1,8.52 z"
       id="path49" />
    <path
       class="cls-4"
       d="m 481.65,176.80187 h 8.75 v -127.19 a 22.51,22.51 0 0 1 1,-6.7 24.69,24.69 0 0 0 -12.28,-5.06 21.5,21.5 0 0 1 2.51,10.16 z"
       id="path51" />
    <path
       class="cls-4"
       d="m 431.28,176.80187 h 8.75 v -90.32 a 21.88,21.88 0 0 0 -10.32,-3.23 17.43,17.43 0 0 1 1.53,7.15 z"
       id="path53" />
    <path
       class="cls-4"
       d="m 535.37,176.80187 h 8.75 v -103 a 20.77,20.77 0 0 1 9,-17.13 29.24,29.24 0 0 0 -4,-7.87 29.77,29.77 0 0 0 -5.07,4 v -1.75 a 34,34 0 0 0 -1.1,-8.52 25.44,25.44 0 0 0 -11.17,-4.59 24.89,24.89 0 0 1 3.52,13.11 z"
       id="path55" />
    <path
       class="cls-4"
       d="m 666.31,222.36187 a 9.44,9.44 0 0 1 -1,11.49 l -75.16,81.54 c -30,33.28 -60.56,46.86 -105.39,46.86 a 88.33,88.33 0 0 1 -68.26,-32.37 94.61,94.61 0 0 0 24.68,30.73 96.13,96.13 0 0 0 43.53,10.39 c 25,0 46.17,-4.27 64.71,-13 16.75,-7.93 31.74,-19.6 47.15,-36.68 l 75.14,-81.57 a 18.14,18.14 0 0 0 4.83,-12.51 41.39,41.39 0 0 0 -10.23,-4.88 z"
       id="path57" />
    <path
       class="cls-4"
       d="m 496.55,259.30187 a 56.14,56.14 0 0 1 42.53,-19.47 h 51 a 4.47,4.47 0 0 0 3,-1.19 l 11.88,-11.17 v -12 l -10.5,9.87 v -150.18 a 33.54,33.54 0 0 0 -0.82,-7.36 23.93,23.93 0 0 0 -10.81,-4.1 23.14,23.14 0 0 1 2.88,11.46 v 155.92 h -46.63 a 64.9,64.9 0 0 0 -49.15,22.5 z"
       id="path59" />
  </g>
</svg>
