<?xml version="1.0" encoding="UTF-8" standalone="no"?>
<svg
   xmlns:dc="http://purl.org/dc/elements/1.1/"
   xmlns:cc="http://creativecommons.org/ns#"
   xmlns:rdf="http://www.w3.org/1999/02/22-rdf-syntax-ns#"
   xmlns:svg="http://www.w3.org/2000/svg"
   xmlns="http://www.w3.org/2000/svg"
   viewBox="0 0 381.49198 381.492"
   version="1.1"
   id="svg78"
   width="381.492"
   height="381.492">
  <metadata
     id="metadata82">
    <rdf:RDF>
      <cc:Work
         rdf:about="">
        <dc:format>image/svg+xml</dc:format>
        <dc:type
           rdf:resource="http://purl.org/dc/dcmitype/StillImage" />
        <dc:title>retro-offset-rock-paper-scissors-icons</dc:title>
      </cc:Work>
    </rdf:RDF>
  </metadata>
  <defs
     id="defs12">
    <style
       id="style10">.cls-1{fill:#fffaff;}.cls-2{fill:#45e9ff;}.cls-3{fill:#ff30d6;}.cls-4{fill:#452cd6;}</style>
  </defs>
  <title
     id="title14">retro-offset-rock-paper-scissors-icons</title>
  <g
     id="g182"
     transform="translate(55.17098,0.07013439)">
    <path
       class="cls-3"
       d="m 8.71,256.34187 v -32.59 a 33.43,33.43 0 0 0 6.13,5.25 v -11.54 a 24.45,24.45 0 0 1 -6.13,-16.2 v -37.85 a 24.53,24.53 0 0 1 40.79,-18.39 33,33 0 0 1 17.06,5.55 v -24.54 a 26.39,26.39 0 0 1 43.39,-20.21 35,35 0 0 1 21,8.63 26.72,26.72 0 0 1 41,-8.63 35.35,35.35 0 0 1 20.76,8.38 22,22 0 0 1 34.93,-6.08 30.62,30.62 0 0 1 12.65,2.88 30.76,30.76 0 0 0 -54.58,-2.25 35.48,35.48 0 0 0 -61.86,0.44 35.16,35.16 0 0 0 -66,16.84 v 14.9 A 33.29,33.29 0 0 0 0,163.41187 v 92.93 a 110.12,110.12 0 0 0 40.13,85 110.19,110.19 0 0 1 -21.34,-41 100.91,100.91 0 0 1 -10.08,-44 z"
       id="path61" />
    <path
       class="cls-2"
       d="m 267.55,229.98187 a 57.24,57.24 0 0 0 -9.52,-16.43 v -74.67 a 30.82,30.82 0 0 0 -17.77,-27.88 30.62,30.62 0 0 1 2.89,13 v 74.67 a 57.1,57.1 0 0 1 13.16,36.43 v 0 0 0 0 c 0,72.48 -59,131.45 -131.45,131.45 h -14.64 a 109.8,109.8 0 0 1 -70.16,-25.26 110.11,110.11 0 0 0 85,40.13 h 14.65 c 72.48,0 131.44,-59 131.44,-131.45 v 0 0 0 0 a 56.9,56.9 0 0 0 -3.6,-19.99 z"
       id="path63" />
    <path
       class="cls-2"
       d="m 14.81,178.28187 v 39.18 a 24.53,24.53 0 0 0 43,-16.2 v -37.85 a 24.45,24.45 0 0 0 -8.31,-18.39 c -0.45,0 -0.9,0 -1.36,0 a 33.34,33.34 0 0 0 -33.33,33.26 z"
       id="path65" />
    <path
       class="cls-2"
       d="m 18.71,300.33187 a 101.67,101.67 0 0 0 91.5,57.55 h 14.64 a 122.84,122.84 0 0 0 122.7,-122.7 v 0 0 0 0 0 0 a 48.45,48.45 0 0 0 -48.46,-48.43 H 72.51 a 6,6 0 0 0 -6,6 v 6.47 a 41.54,41.54 0 0 0 41.49,41.49 h 62.81 v 8.75 h -0.72 a 46.63,46.63 0 0 0 -46.58,46.59 v 15 h -8.75 v -15.07 a 55.33,55.33 0 0 1 25.5,-46.59 h -32.24 a 50.32,50.32 0 0 1 -46.31,-30.84 33.25,33.25 0 0 1 -46.87,10.43 v 42.23 a 110.15,110.15 0 0 0 3.87,29.12 z"
       id="path67" />
    <path
       class="cls-2"
       d="m 200.55,123.62187 a 35.86,35.86 0 0 0 -7.87,-9.42 21.8,21.8 0 0 0 -2.32,9.8 v 54 h 8.73 a 57,57 0 0 1 35.31,12.22 v -66.22 a 22,22 0 0 0 -6.79,-15.88 h -0.35 a 30.78,30.78 0 0 0 -26.71,15.5 z"
       id="path69" />
    <path
       class="cls-2"
       d="m 138.71,124.06187 a 35.36,35.36 0 0 0 -7.75,-9.61 26.53,26.53 0 0 0 -2.82,11.92 v 51.59 h 53.5 v -51.59 a 26.7,26.7 0 0 0 -9.64,-20.55 c -0.74,0 -1.48,-0.07 -2.23,-0.07 a 35.53,35.53 0 0 0 -31.06,18.31 z"
       id="path71" />
    <path
       class="cls-2"
       d="m 72.71,140.91187 v 14.9 a 33,33 0 0 0 -6.13,-5.24 v 12.84 0 15.81 a 14.73,14.73 0 0 1 6,-1.26 h 46.85 v -51.93 a 26.35,26.35 0 0 0 -9.44,-20.21 c -0.69,0 -1.39,-0.07 -2.1,-0.07 a 35.2,35.2 0 0 0 -35.18,35.16 z"
       id="path73" />
    <path
       class="cls-4"
       d="m 124.86,366.63187 c 72.48,0 131.45,-59 131.45,-131.45 v 0 0 0 0 a 57.1,57.1 0 0 0 -13.16,-36.43 v -74.75 a 30.62,30.62 0 0 0 -2.89,-13 30.62,30.62 0 0 0 -12.65,-2.88 22,22 0 0 1 6.79,15.88 v 66.18 a 57,57 0 0 0 -35.31,-12.22 h -8.73 v -54 a 21.8,21.8 0 0 1 2.32,-9.8 35.35,35.35 0 0 0 -20.71,-8.38 26.7,26.7 0 0 1 9.64,20.55 v 51.59 h -53.5 v -51.55 a 26.53,26.53 0 0 1 2.82,-11.92 35,35 0 0 0 -21,-8.63 26.35,26.35 0 0 1 9.44,20.21 v 51.93 H 72.51 a 14.73,14.73 0 0 0 -6,1.26 v -15.81 0 -12.84 a 33,33 0 0 0 -17.06,-5.55 24.45,24.45 0 0 1 8.31,18.39 v 37.85 a 24.53,24.53 0 0 1 -43,16.2 v 11.52 a 33.25,33.25 0 0 0 46.95,-10.43 50.32,50.32 0 0 0 46.34,30.84 h 32.26 a 55.33,55.33 0 0 0 -25.5,46.59 v 15.07 h 8.75 v -15.07 a 46.63,46.63 0 0 1 46.58,-46.59 h 0.72 v -8.75 h -62.84 a 41.54,41.54 0 0 1 -41.49,-41.49 v -6.47 a 6,6 0 0 1 6,-6 h 126.56 a 48.45,48.45 0 0 1 48.47,48.33 v 0 0 0 0 0 0 a 122.84,122.84 0 0 1 -122.7,122.7 h -14.64 a 101.67,101.67 0 0 1 -91.51,-57.38 110.19,110.19 0 0 0 21.34,41 109.8,109.8 0 0 0 70.16,25.26 z"
       id="path75" />
  </g>
</svg>
