<?xml version="1.0" encoding="UTF-8" standalone="no"?>
<svg
   xmlns:dc="http://purl.org/dc/elements/1.1/"
   xmlns:cc="http://creativecommons.org/ns#"
   xmlns:rdf="http://www.w3.org/1999/02/22-rdf-syntax-ns#"
   xmlns:svg="http://www.w3.org/2000/svg"
   xmlns="http://www.w3.org/2000/svg"
   viewBox="0 0 381.49198 381.49188"
   version="1.1"
   id="svg78"
   width="381.492"
   height="381.49188">
  <metadata
     id="metadata82">
    <rdf:RDF>
      <cc:Work
         rdf:about="">
        <dc:format>image/svg+xml</dc:format>
        <dc:type
           rdf:resource="http://purl.org/dc/dcmitype/StillImage" />
        <dc:title>retro-offset-rock-paper-scissors-icons</dc:title>
      </cc:Work>
    </rdf:RDF>
  </metadata>
  <defs
     id="defs12">
    <style
       id="style10">.cls-1{fill:#fffaff;}.cls-2{fill:#45e9ff;}.cls-3{fill:#ff30d6;}.cls-4{fill:#452cd6;}</style>
  </defs>
  <title
     id="title14">retro-offset-rock-paper-scissors-icons</title>
  <g
     id="g207"
     transform="translate(-714.13884)">
    <path
       class="cls-2"
       d="m 1023.47,26.75187 a 29.74,29.74 0 0 0 -11.52,-9.24 29.66,29.66 0 0 1 2.36,16.46 c -5.59,41.75 -9.83,71.57 -12.93,93.34 -9.36,65.81 -9.36,65.81 -9.36,130.6 v 0 c 0,31.46 -11.89,59.94 -33.49,80.19 a 106.33,106.33 0 0 1 -72.54,28.52 q -3.42,0 -6.85,-0.23 a 102.27,102.27 0 0 1 -58.51,-23.27 c 0.92,1.11 1.85,2.21 2.81,3.29 18.49,20.73 43.56,33.11 70.57,34.86 2.29,0.15 4.57,0.22 6.86,0.22 a 106.35,106.35 0 0 0 72.54,-28.52 c 21.59,-20.24 33.49,-48.72 33.49,-80.19 v 0 c 0,-64.78 0,-64.78 9.36,-130.59 3.09,-21.77 7.34,-51.59 12.93,-93.35 a 29.59,29.59 0 0 0 -5.72,-22.09 z"
       id="path19" />
    <path
       class="cls-2"
       d="m 892.37,142.61187 a 31.24,31.24 0 0 1 4.93,16.89 v 41.25 h 37.54 a 57.21,57.21 0 0 1 48.49,26.9 c 0.26,-37.38 1.68,-47.35 9.39,-101.55 3.09,-21.76 7.33,-51.56 12.93,-93.3 a 21.1,21.1 0 0 0 -6.06,-17.91 29.83,29.83 0 0 0 -29.46,25.65 l -16,109.44 -4.1,-28.16 -6.45,44.27 a 4.38,4.38 0 0 1 -8.66,0 l -20.19,-138.75 a 20.94,20.94 0 0 0 -6.06,-12 29.79,29.79 0 0 0 -29.47,34 z"
       id="path21" />
    <path
       class="cls-2"
       d="m 811.71,239.66187 a 22.73,22.73 0 0 0 22.51,-19.81 c 0,-0.25 0,-0.5 0,-0.74 a 17.61,17.61 0 0 1 0.19,-2.63 v -32.55 a 22.61,22.61 0 0 0 -7.19,-16.54 h -0.62 a 31.47,31.47 0 0 0 -31.43,31.43 v 33.63 a 22.61,22.61 0 0 0 16.54,7.21 z"
       id="path23" />
    <path
       class="cls-2"
       d="m 952.55,331.75187 c 19.81,-18.57 30.72,-44.78 30.72,-73.8 a 48.48,48.48 0 0 0 -48.43,-48.43 h -82.22 a 9.63,9.63 0 0 0 -9.43,7.73 c 0,1 -0.07,2 -0.17,3 a 34.47,34.47 0 0 0 34.41,33.3 h 41.51 v 8.75 a 40.85,40.85 0 0 0 -40.8,40.8 v 13.35 h -8.75 v -13.36 a 49.53,49.53 0 0 1 21.46,-40.8 h -13.42 a 43.26,43.26 0 0 1 -40.08,-27.1 31.37,31.37 0 0 1 -42.15,8.49 v 28.5 a 111.56,111.56 0 0 0 4,29.66 102.17,102.17 0 0 0 15.9,23.88 c 17,19 39.89,30.35 64.6,31.95 a 97.62,97.62 0 0 0 72.85,-25.92 z"
       id="path25" />
    <path
       class="cls-2"
       d="m 939.3,135.09187 6.36,-43.63 -7.35,-50.5 a 29.83,29.83 0 0 0 -17.23,-23 30.06,30.06 0 0 1 2.36,8.13 z"
       id="path27" />
    <path
       class="cls-2"
       d="m 888.55,200.75187 v -41.25 a 22.61,22.61 0 0 0 -7.19,-16.55 h -0.65 a 31.47,31.47 0 0 0 -31.44,31.43 v 2.69 a 32.19,32.19 0 0 0 -6.12,-5 v 31.28 a 18.22,18.22 0 0 1 9.43,-2.61 z"
       id="path29" />
    <path
       class="cls-3"
       d="m 1011.95,17.52187 a 30.26,30.26 0 0 0 -3.35,-5.64 29.82,29.82 0 0 0 -53.35,13.78 l -9.59,65.8 -6.36,43.63 -15.86,-109 a 29.85,29.85 0 0 0 -33.73,-25.34 29.84,29.84 0 0 0 -25.38,33.69 l 13.5,96.05 a 31.44,31.44 0 0 0 -11.91,-2.38 h -0.09 a 31.47,31.47 0 0 0 -31.43,31.44 v 2.69 a 31.42,31.42 0 0 0 -54.12,21.74 v 73.38 a 111.33,111.33 0 0 0 28.25,74.23 108.8,108.8 0 0 0 12.06,11.59 102.27,102.27 0 0 0 58.51,23.27 q 3.43,0.23 6.85,0.23 a 106.33,106.33 0 0 0 72.54,-28.52 c 21.6,-20.25 33.49,-48.73 33.49,-80.19 v 0 c 0,-64.79 0,-64.79 9.36,-130.6 3.1,-21.77 7.34,-51.59 12.93,-93.34 a 29.66,29.66 0 0 0 -2.32,-16.51 z m -168.76,142 a 22.71,22.71 0 0 1 22.68,-22.69 h 0.06 a 22.68,22.68 0 0 1 11.6,3.23 23.15,23.15 0 0 1 3.83,2.91 22.61,22.61 0 0 1 7.19,16.55 v 41.23 h -35.93 a 18.22,18.22 0 0 0 -9.43,2.61 v -43.86 z m -54.12,24.43 a 22.69,22.69 0 0 1 45.37,0 v 32.55 a 17.61,17.61 0 0 0 -0.19,2.63 c 0,0.24 0,0.49 0,0.74 a 22.69,22.69 0 0 1 -45.19,-2.88 z m 163.48,147.8 a 97.62,97.62 0 0 1 -72.84,25.92 c -24.71,-1.6 -47.65,-12.95 -64.6,-31.95 a 102.87,102.87 0 0 1 -26,-68.41 v -18.56 a 31.62,31.62 0 0 0 6.13,5 31.37,31.37 0 0 0 42.15,-8.49 43.26,43.26 0 0 0 40.08,27.1 h 13.42 a 49.53,49.53 0 0 0 -21.46,40.8 v 13.29 h 8.75 v -13.36 a 40.85,40.85 0 0 1 40.8,-40.8 v -8.75 h -41.51 a 34.47,34.47 0 0 1 -34.41,-33.3 c 0.1,-1 0.16,-2 0.17,-3 a 9.63,9.63 0 0 1 9.43,-7.73 h 82.22 a 48.48,48.48 0 0 1 48.43,48.43 c -0.04,29 -10.95,55.21 -30.76,73.81 z m 53.1,-299 c -5.6,41.74 -9.84,71.54 -12.93,93.3 -7.71,54.2 -9.13,64.17 -9.39,101.55 a 57.21,57.21 0 0 0 -48.49,-26.9 H 897.3 v -41.2 a 31.24,31.24 0 0 0 -4.93,-16.89 31.69,31.69 0 0 0 -4.77,-5.8 l -14.56,-103.64 a 21.073284,21.073284 0 0 1 41.74,-5.84 l 20.19,138.75 a 4.38,4.38 0 0 0 8.66,0 l 6.45,-44.27 13.83,-94.91 a 21.08,21.08 0 0 1 41.74,5.89 z"
       id="path31" />
    <path
       class="cls-4"
       d="m 934.97,166.08187 a 4.38,4.38 0 0 0 8.66,0 l 6.45,-44.27 -4.37,-30.35 -6.36,43.63 -15.86,-109 a 30.06,30.06 0 0 0 -2.36,-8.13 29.48,29.48 0 0 0 -12.36,-2.66 20.94,20.94 0 0 1 6.06,12 z"
       id="path33" />
    <path
       class="cls-4"
       d="m 1011.95,17.52187 a 30,30 0 0 0 -12.36,-2.64 21.1,21.1 0 0 1 6.06,17.91 c -5.6,41.74 -9.84,71.54 -12.93,93.3 -7.71,54.2 -9.13,64.17 -9.39,101.55 a 57.21,57.21 0 0 0 -48.49,-26.9 H 897.3 v -41.24 a 31.24,31.24 0 0 0 -4.93,-16.89 l 0.38,2.71 a 31.32,31.32 0 0 0 -11.39,-2.37 22.61,22.61 0 0 1 7.19,16.55 v 41.25 h -35.93 a 18.22,18.22 0 0 0 -9.43,2.61 v -31.26 a 31.22,31.22 0 0 0 -15.94,-4.71 22.61,22.61 0 0 1 7.19,16.54 v 32.55 a 17.61,17.61 0 0 0 -0.19,2.63 c 0,0.24 0,0.49 0,0.74 a 22.66,22.66 0 0 1 -39.06,12.6 v 11.23 a 31.37,31.37 0 0 0 42.15,-8.49 43.26,43.26 0 0 0 40.08,27.1 h 13.42 a 49.53,49.53 0 0 0 -21.46,40.8 v 13.36 h 8.75 v -13.36 a 40.85,40.85 0 0 1 40.8,-40.8 v -8.75 h -41.51 a 34.47,34.47 0 0 1 -34.41,-33.3 c 0.1,-1 0.16,-2 0.17,-3 a 9.63,9.63 0 0 1 9.43,-7.73 h 82.22 a 48.48,48.48 0 0 1 48.43,48.43 c 0,29 -10.91,55.23 -30.72,73.8 a 97.62,97.62 0 0 1 -72.83,25.93 c -24.71,-1.6 -47.65,-12.95 -64.6,-31.95 a 102.17,102.17 0 0 1 -15.9,-23.88 111.07,111.07 0 0 0 21.43,41.29 102.27,102.27 0 0 0 58.51,23.27 q 3.43,0.23 6.85,0.23 a 106.33,106.33 0 0 0 72.54,-28.52 c 21.6,-20.25 33.49,-48.73 33.49,-80.19 v 0 c 0,-64.79 0,-64.79 9.36,-130.6 3.1,-21.77 7.34,-51.59 12.93,-93.34 a 29.66,29.66 0 0 0 -2.37,-16.46 z"
       id="path35" />
  </g>
</svg>
